<?xml version="1.0" encoding="UTF-8" standalone="no"?>
<!-- Created with Inkscape (http://www.inkscape.org/) -->

<svg
   xmlns:dc="http://purl.org/dc/elements/1.1/"
   xmlns:cc="http://creativecommons.org/ns#"
   xmlns:rdf="http://www.w3.org/1999/02/22-rdf-syntax-ns#"
   xmlns:svg="http://www.w3.org/2000/svg"
   xmlns="http://www.w3.org/2000/svg"
   xmlns:xlink="http://www.w3.org/1999/xlink"
   xmlns:sodipodi="http://sodipodi.sourceforge.net/DTD/sodipodi-0.dtd"
   xmlns:inkscape="http://www.inkscape.org/namespaces/inkscape"
   version="1.1"
   width="500"
   height="500"
   id="svg2"
   inkscape:version="0.48.1 "
   sodipodi:docname="Steering_wheel_ship.svg">
  <metadata
     id="metadata24">
    <rdf:RDF>
      <cc:Work
         rdf:about="">
        <dc:format>image/svg+xml</dc:format>
        <dc:type
           rdf:resource="http://purl.org/dc/dcmitype/StillImage" />
      </cc:Work>
    </rdf:RDF>
  </metadata>
  <sodipodi:namedview
     pagecolor="#ffffff"
     bordercolor="#666666"
     borderopacity="1"
     objecttolerance="10"
     gridtolerance="10"
     guidetolerance="10"
     inkscape:pageopacity="0"
     inkscape:pageshadow="2"
     inkscape:window-width="1280"
     inkscape:window-height="738"
     id="namedview22"
     showgrid="false"
     inkscape:zoom="1.038"
     inkscape:cx="250"
     inkscape:cy="250"
     inkscape:window-x="-8"
     inkscape:window-y="-8"
     inkscape:window-maximized="1"
     inkscape:current-layer="svg2" />
  <defs
     id="defs4" />
  <g
     id="g3030"
     transform="matrix(1.0008109,0,0,0.99879402,-0.57612004,0.3458015)">
    <use
       xlink:href="#g3712"
       height="500"
       width="500"
       y="0"
       x="0"
       id="use3764"
       transform="matrix(0,-1,1,0,0.917335,500)" />
    <use
       xlink:href="#g3712"
       height="500"
       width="500"
       y="0"
       x="0"
       id="use3760"
       transform="matrix(-1,0,0,-1,500,499.91128)" />
    <g
       id="g3712"
       transform="translate(-0.872975,0)">
      <path
         style="color:#000000;fill:#cc9933;fill-opacity:1;stroke:#000000;stroke-width:1.5;stroke-linecap:butt;stroke-linejoin:miter;stroke-miterlimit:4;stroke-opacity:1;stroke-dasharray:none;stroke-dashoffset:0;marker:none;visibility:visible;display:inline;overflow:visible;enable-background:accumulate"
         id="path3677"
         d="m 239.60466,213.00985 1.60628,-62.10981 c -0.16152,-3.33713 -4.33902,-8.12367 -6.51439,-12.33719 l 0,-5.33198 c 10.91681,-1.64503 21.83362,-1.44589 32.75043,0 l 0,5.622 c -2.21623,3.88731 -6.55146,8.35253 -6.42515,11.60097 l 0.98162,62.51924"
         inkscape:connector-curvature="0" />
      <path
         style="color:#000000;fill:none;stroke:#000000;stroke-width:1.5;stroke-linecap:butt;stroke-linejoin:miter;stroke-miterlimit:4;stroke-opacity:1;stroke-dasharray:none;stroke-dashoffset:0;marker:none;visibility:visible;display:inline;overflow:visible;enable-background:accumulate"
         id="path3675"
         d="m 234.3396,138.67441 c 10.9213,-1.22238 22.09847,-0.90955 33.3751,0"
         inkscape:connector-curvature="0" />
      <path
         style="color:#000000;fill:#cc9933;fill-opacity:1;stroke:#000000;stroke-width:2.5;stroke-linecap:butt;stroke-linejoin:miter;stroke-miterlimit:4;stroke-opacity:1;stroke-dasharray:none;stroke-dashoffset:0;marker:none;visibility:visible;display:inline;overflow:visible;enable-background:accumulate"
         id="path3706"
         d="m 235.9375,15.25 c -1.14532,11.907907 4.69865,36.156084 4.75,44.8125 0.0387,6.523779 -5.41289,12.035993 -6.09375,14.53125 l -0.0625,8.21875 32.46875,0 c -0.006,-2.732337 0.0357,-5.51808 -0.0625,-8.21875 -0.68086,-2.495257 -6.13245,-8.007471 -6.09375,-14.53125 C 260.8951,51.406084 266.2462,27.254471 265.5625,15.25 265.07806,6.7440395 258.71132,1.9011099 250.75,1.90625 242.35104,1.9116726 236.69764,7.3467924 235.9375,15.25 z"
         inkscape:connector-curvature="0" />
      <path
         style="color:#000000;fill:none;stroke:#000000;stroke-width:1.5;stroke-linecap:butt;stroke-linejoin:miter;stroke-miterlimit:4;stroke-opacity:1;stroke-dasharray:none;stroke-dashoffset:0;marker:none;visibility:visible;display:inline;overflow:visible;enable-background:accumulate"
         id="path3679"
         d="m 234.35696,75.141242 c 10.97957,-1.826254 21.95913,-1.875534 32.9387,0"
         inkscape:connector-curvature="0" />
    </g>
    <use
       xlink:href="#use3760"
       height="500"
       width="500"
       y="0"
       x="0"
       id="use3772"
       transform="matrix(0.70710678,-0.70710678,0.70710678,0.70710678,-103.52202,249.98701)" />
    <use
       xlink:href="#g3712"
       height="500"
       width="500"
       y="0"
       x="0"
       id="use3774"
       transform="matrix(0.70710678,-0.70710678,0.70710678,0.70710678,-103.52202,249.98701)" />
    <use
       xlink:href="#use3760"
       height="500"
       width="500"
       y="0"
       x="0"
       id="use3776"
       transform="matrix(0.70710678,0.70710678,-0.70710678,0.70710678,249.96863,-103.56638)" />
    <use
       xlink:href="#g3712"
       height="500"
       width="500"
       y="0"
       x="0"
       id="use3778"
       transform="matrix(0.70710678,0.70710678,-0.70710678,0.70710678,249.96863,-103.56638)" />
    <path
       style="color:#000000;fill:none;stroke:#000000;stroke-width:10.10821247;stroke-linecap:butt;stroke-linejoin:miter;stroke-miterlimit:4;stroke-opacity:1;stroke-dasharray:none;stroke-dashoffset:0;marker:none;visibility:visible;display:inline;overflow:visible;enable-background:accumulate"
       id="path3691"
       transform="matrix(0.15828713,0,0,0.15828713,210.36733,210.24936)"
       d="m 337.21152,251.12982 a 86.82692,86.82692 0 1 1 -173.65384,0 86.82692,86.82692 0 1 1 173.65384,0 z"
       inkscape:connector-curvature="0" />
    <use
       xlink:href="#g3712"
       height="500"
       width="500"
       y="0"
       x="0"
       id="use3764-1"
       transform="matrix(0,-1,-1,0,499.82885,500)" />
    <path
       style="color:#000000;fill:#cc9933;fill-opacity:1;stroke:#000000;stroke-width:3;stroke-linecap:butt;stroke-linejoin:miter;stroke-miterlimit:4;stroke-opacity:1;stroke-dasharray:none;stroke-dashoffset:0;marker:none;visibility:visible;display:inline;overflow:visible;enable-background:accumulate"
       id="path3681"
       d="m 250,82.5 c -92.50675,0 -167.5,74.99325 -167.5,167.5 0,92.50675 74.99325,167.5 167.5,167.5 92.50675,0 167.5,-74.99325 167.5,-167.5 C 417.5,157.49325 342.50675,82.5 250,82.5 z m 0,49.25 c 65.30147,0 118.25,52.94853 118.25,118.25 0,65.30147 -52.94853,118.25 -118.25,118.25 -65.30147,0 -118.25,-52.94853 -118.25,-118.25 0,-65.30147 52.94853,-118.25 118.25,-118.25 z"
       inkscape:connector-curvature="0" />
    <path
       style="color:#000000;fill:none;stroke:#000000;stroke-width:1.60000002;stroke-linecap:butt;stroke-linejoin:miter;stroke-miterlimit:4;stroke-opacity:1;stroke-dasharray:none;stroke-dashoffset:0;marker:none;visibility:visible;display:inline;overflow:visible;enable-background:accumulate"
       id="path3698"
       d="m 239.9487,259.64972 -11.10537,11.10537 m 44.29688,-44.29688 -13.73758,13.73757 m 0.9903,18.63363 11.10537,11.10537 m -44.29688,-44.29688 13.73757,13.73758 M 236.22572,250 l -16.96738,0 m 62.64524,0 -18.09042,0 M 250,263.87621 l 0,15.70536 m 0,-62.64524 0,19.42786"
       inkscape:connector-curvature="0" />
    <path
       style="color:#000000;fill:none;stroke:#000000;stroke-width:0.35484824;stroke-linecap:butt;stroke-linejoin:miter;stroke-miterlimit:4;stroke-opacity:1;stroke-dasharray:none;stroke-dashoffset:0;marker:none;visibility:visible;display:inline;overflow:visible;enable-background:accumulate"
       id="path3683"
       transform="matrix(1.409053,0,0,1.409053,-102.80518,-103.85524)"
       d="m 337.21152,251.12982 a 86.82692,86.82692 0 1 1 -173.65384,0 86.82692,86.82692 0 1 1 173.65384,0 z"
       inkscape:connector-curvature="0" />
    <path
       style="color:#000000;fill:#cc9933;fill-opacity:1;stroke:#000000;stroke-width:1.5;stroke-linecap:butt;stroke-linejoin:miter;stroke-miterlimit:4;stroke-opacity:1;stroke-dasharray:none;stroke-dashoffset:0;marker:none;visibility:visible;display:inline;overflow:visible;enable-background:accumulate"
       id="path3687"
       d="m 250,209 c -22.64544,0 -41,18.35456 -41,41 0,22.64544 18.35456,41 41,41 22.64544,0 41,-18.35456 41,-41 0,-22.64544 -18.35456,-41 -41,-41 z m 0,13.375 c 15.25731,0 27.625,12.36769 27.625,27.625 0,15.25731 -12.36769,27.625 -27.625,27.625 -15.25731,0 -27.625,-12.36769 -27.625,-27.625 0,-15.25731 12.36769,-27.625 27.625,-27.625 z"
       inkscape:connector-curvature="0" />
    <path
       style="color:#000000;fill:none;stroke:#000000;stroke-width:3;stroke-linecap:butt;stroke-linejoin:miter;stroke-miterlimit:4;stroke-opacity:1;stroke-dasharray:none;stroke-dashoffset:0;marker:none;visibility:visible;display:inline;overflow:visible;enable-background:accumulate"
       id="path3758"
       d="m 250,209 c -22.64544,0 -41,18.35456 -41,41 0,22.64544 18.35456,41 41,41 22.64544,0 41,-18.35456 41,-41 0,-22.64544 -18.35456,-41 -41,-41 z"
       inkscape:connector-curvature="0" />
  </g>
</svg>
